<svg xmlns="http://www.w3.org/2000/svg" width="1280" height="820" viewBox="0 0 1280 820" role="img" aria-labelledby="title desc">
  <title id="title">Multilingual compiler pipeline with optional surface normalization and dual backends</title>
  <desc id="desc">Diagram showing multilingual source flowing through lexer, optional surface normalization, parser, semantic IR lowering, semantic analysis, then branching to Python execution and WAT/WASM generation with backend selection.</desc>
  <defs>
    <style>
      .bg { fill: #f7f7f2; }
      .title { font: 700 32px 'Segoe UI', sans-serif; fill: #1f2937; }
      .subtitle { font: 500 18px 'Segoe UI', sans-serif; fill: #374151; }
      .label { font: 600 16px 'Segoe UI', sans-serif; fill: #111827; }
      .small { font: 500 14px 'Segoe UI', sans-serif; fill: #4b5563; }
      .box { fill: #ffffff; stroke: #334155; stroke-width: 2; rx: 12; ry: 12; }
      .box-core { fill: #fffef7; stroke: #92400e; stroke-width: 2.5; rx: 12; ry: 12; }
      .box-optional { fill: #eff6ff; stroke: #1d4ed8; stroke-width: 2.5; rx: 12; ry: 12; }
      .box-runtime { fill: #ecfeff; stroke: #0f766e; stroke-width: 2.5; rx: 12; ry: 12; }
      .arrow { stroke: #374151; stroke-width: 2.5; fill: none; marker-end: url(#arrowHead); }
      .arrow-opt { stroke: #1d4ed8; stroke-width: 2.5; fill: none; marker-end: url(#arrowHeadBlue); }
      .dash { stroke-dasharray: 8 7; }
      .legend { fill: #ffffff; stroke: #94a3b8; stroke-width: 1.5; rx: 10; ry: 10; }
    </style>
    <marker id="arrowHead" markerWidth="10" markerHeight="8" refX="9" refY="4" orient="auto">
      <polygon points="0,0 10,4 0,8" fill="#374151" />
    </marker>
    <marker id="arrowHeadBlue" markerWidth="10" markerHeight="8" refX="9" refY="4" orient="auto">
      <polygon points="0,0 10,4 0,8" fill="#1d4ed8" />
    </marker>
  </defs>

  <rect class="bg" x="0" y="0" width="1280" height="820" />

  <text class="title" x="40" y="56">How multilingual Works Today</text>
  <text class="subtitle" x="40" y="88">Shared frontends normalize language surfaces into one AST and one semantic IR, then target Python or WAT/WASM.</text>

  <rect class="box" x="40" y="136" width="180" height="96" />
  <text class="label" x="60" y="170">Source .multi</text>
  <text class="small" x="60" y="196">17 human-language surfaces</text>
  <text class="small" x="60" y="216">canonical or alternate phrasing</text>

  <rect class="box-core" x="270" y="136" width="180" height="96" />
  <text class="label" x="290" y="170">Lexer</text>
  <text class="small" x="290" y="196">Unicode tokenization</text>
  <text class="small" x="290" y="216">keyword to concept mapping</text>

  <rect class="box-optional" x="500" y="118" width="230" height="132" />
  <text class="label" x="520" y="152">Surface Normalizer</text>
  <text class="small" x="520" y="178">Optional token rewrite pass</text>
  <text class="small" x="520" y="200">rules in resources/usm</text>
  <text class="small" x="520" y="222">surface_patterns.json</text>

  <rect class="box-core" x="780" y="136" width="180" height="96" />
  <text class="label" x="800" y="170">Parser</text>
  <text class="small" x="800" y="196">Language-agnostic AST</text>
  <text class="small" x="800" y="216">shared node vocabulary</text>

  <rect class="box-core" x="1010" y="136" width="210" height="96" />
  <text class="label" x="1030" y="170">Semantic IR Lowering</text>
  <text class="small" x="1030" y="196">AST to IRProgram</text>
  <text class="small" x="1030" y="216">core semantic model bridge</text>

  <rect class="box-core" x="1010" y="286" width="210" height="96" />
  <text class="label" x="1030" y="320">Semantic Analyzer</text>
  <text class="small" x="1030" y="346">Scope and structure checks</text>
  <text class="small" x="1030" y="366">core.semantic_analyzer</text>

  <rect class="box-core" x="780" y="456" width="180" height="112" />
  <text class="label" x="800" y="490">Python Backend</text>
  <text class="small" x="800" y="516">PythonCodeGenerator</text>
  <text class="small" x="800" y="536">runtime builtins injection</text>

  <rect class="box-runtime" x="780" y="622" width="180" height="112" />
  <text class="label" x="800" y="656">Python Execution</text>
  <text class="small" x="800" y="682">ProgramExecutor and REPL</text>
  <text class="small" x="800" y="702">exec with localized aliases</text>

  <rect class="box-core" x="1010" y="456" width="210" height="112" />
  <text class="label" x="1030" y="490">WAT / WASM Backend</text>
  <text class="small" x="1030" y="516">WATCodeGenerator</text>
  <text class="small" x="1030" y="536">optional wasm binary path</text>

  <rect class="box-runtime" x="1010" y="622" width="210" height="112" />
  <text class="label" x="1030" y="656">Backend Selection</text>
  <text class="small" x="1030" y="682">wasmtime when available</text>
  <text class="small" x="1030" y="702">Python fallbacks otherwise</text>

  <path class="arrow" d="M220 184 L270 184" />
  <path class="arrow-opt" d="M450 184 L500 184" />
  <path class="arrow" d="M730 184 L780 184" />
  <path class="arrow" d="M960 184 L1010 184" />
  <path class="arrow" d="M1115 232 L1115 286" />
  <path class="arrow" d="M1115 382 L1115 456" />
  <path class="arrow" d="M1115 568 L1115 622" />
  <path class="arrow" d="M1115 382 C1115 430, 900 420, 870 456" />
  <path class="arrow" d="M870 568 L870 622" />

  <path class="arrow dash" d="M450 232 C585 332, 700 332, 780 232" />
  <text class="small" x="530" y="324">No matching surface rule: tokens pass through unchanged</text>

  <rect class="legend" x="40" y="440" width="660" height="294" />
  <text class="label" x="60" y="476">Why the Surface Pass Exists</text>

  <rect class="box" x="60" y="496" width="270" height="180" />
  <text class="small" x="80" y="526">Example input surface</text>
  <text class="small" x="80" y="556">iterable-first or alternate word order</text>
  <text class="small" x="80" y="582">still reads naturally in a local language</text>
  <text class="small" x="80" y="616">The source remains language-facing.</text>

  <rect class="box-optional" x="370" y="496" width="310" height="180" />
  <text class="small" x="390" y="526">Normalizer rewrites matched token patterns</text>
  <text class="small" x="390" y="552">into canonical concept order before parsing.</text>
  <text class="small" x="390" y="586">Result: the parser, IR lowering, analyzers,</text>
  <text class="small" x="390" y="608">and backends see one consistent structure.</text>
  <text class="small" x="390" y="642">That keeps frontend variety data-driven.</text>

  <path class="arrow-opt" d="M330 586 L370 586" />
</svg>
